# xmcd
#
# Track frame offsets: 
#        150
#        3081
#        21530
#        35719
#        52891
#        64331
#        100656
#        120671
#        140915
#        156860
#        173877
#        189199
#        211000
#        231070
#        248778
#        272830
#        295642
#
# Disc length: 3959 seconds
#
# Revision: 0
# Processed by: cddbd v1.5.2PL0 Copyright (c) Steve Scherf et al.
# Submitted via: ExactAudioCopy v0.99pb4
#
DISCID=ea0f7511
DTITLE=Red Wagons - Ullalla boogie
DYEAR=2004
DGENRE=Jump Blues 
TTITLE0=What is this?
TTITLE1=Telephone boogie
TTITLE2=Let's the beat 
TTITLE3=The hustle is on 
TTITLE4=Beautiful girl
TTITLE5=Flautolence blues           
TTITLE6=Certainly all
TTITLE7=Ma a te no
TTITLE8=Ullalla boogie
TTITLE9=She wants to sell my monkey
TTITLE10=It's obdacious
TTITLE11=Lo zio di Frank
TTITLE12=The house of blue lights
TTITLE13=Safronia B
TTITLE14=She moves me
TTITLE15=Strollin' with Bones 
TTITLE16=What is this? final act
EXTD=
EXTT0=
EXTT1=
EXTT2=
EXTT3=
EXTT4=
EXTT5=
EXTT6=
EXTT7=
EXTT8=
EXTT9=
EXTT10=
EXTT11=
EXTT12=
EXTT13=
EXTT14=
EXTT15=
EXTT16=
PLAYORDER=
